<svg width="32" height="32" viewBox="0 0 32 32" fill="none" xmlns="http://www.w3.org/2000/svg">
<g id="u:ban">
<path id="Vector" d="M16 2.66667C13.3629 2.66667 10.785 3.44866 8.59239 4.91374C6.39974 6.37883 4.69077 8.46121 3.6816 10.8976C2.67243 13.3339 2.40839 16.0148 2.92286 18.6012C3.43733 21.1876 4.70721 23.5634 6.57191 25.4281C8.43661 27.2928 10.8124 28.5627 13.3988 29.0771C15.9852 29.5916 18.6661 29.3276 21.1024 28.3184C23.5388 27.3092 25.6212 25.6003 27.0863 23.4076C28.5513 21.215 29.3333 18.6371 29.3333 16C29.3333 14.249 28.9885 12.5152 28.3184 10.8976C27.6483 9.27988 26.6662 7.81003 25.4281 6.57191C24.19 5.3338 22.7201 4.35167 21.1024 3.68161C19.4848 3.01155 17.751 2.66667 16 2.66667ZM16 26.6667C13.171 26.6667 10.4579 25.5429 8.45752 23.5425C6.45714 21.5421 5.33333 18.829 5.33333 16C5.33038 13.6311 6.12402 11.3301 7.58666 9.46667L22.5333 24.4133C20.6699 25.876 18.3689 26.6696 16 26.6667ZM24.4133 22.5333L9.46666 7.58667C11.3301 6.12403 13.6311 5.33039 16 5.33334C18.829 5.33334 21.5421 6.45714 23.5425 8.45753C25.5429 10.4579 26.6667 13.171 26.6667 16C26.6696 18.3689 25.876 20.6699 24.4133 22.5333Z" fill="#FFE8E8"/>
</g>
</svg>
